Coordinates
version=1
nRows=17
nColumns=24
inDegrees=yes

Units are S.I. units (second, meters, Newtons, ...)
Angles are in degrees.

endheader
time	pelvis_tilt	pelvis_list	pelvis_rotation	pelvis_tx	pelvis_ty	pelvis_tz	hip_flexion_r	hip_adduction_r	hip_rotation_r	knee_angle_r	ankle_angle_r	subtalar_angle_r	mtp_angle_r	hip_flexion_l	hip_adduction_l	hip_rotation_l	knee_angle_l	ankle_angle_l	subtalar_angle_l	mtp_angle_l	lumbar_extension	lumbar_bending	lumbar_rotation
      0.69116667	      1.59507839	     -4.96450654	      1.78683923	     -0.46395347	      1.00217840	      0.29967934	      8.27740816	     10.24022787	     -1.36875518	    -16.58402589	      5.78644291	    -13.77784002	     -1.76568317	     19.73314877	     -4.91061184	      0.04647215	    -70.60332584	     -5.51400636	     -8.00029909	      3.08426285	     -3.39788286	      9.01710673	      2.47950384
      0.69533333	      1.64112040	     -4.86255287	      1.75985070	     -0.45867224	      1.00307767	      0.29986817	      7.65616234	     10.14953623	     -1.34341086	    -16.15276218	      5.82888224	    -13.62365575	     -1.80340008	     20.24439408	     -4.72636572	      0.12524756	    -70.22505881	     -5.05127391	     -8.33664128	      2.95269071	     -3.48593316	      8.89367146	      2.57939874
      0.69950000	      1.68380104	     -4.75678529	      1.72135112	     -0.45339464	      1.00394836	      0.30006673	      7.04014660	     10.05582303	     -1.29781623	    -15.72462456	      5.86828957	    -13.47965095	     -1.84003014	     20.73282370	     -4.54411565	      0.18508788	    -69.77194720	     -4.56851613	     -8.66501770	      2.83626132	     -3.57280315	      8.76652958	      2.68234752
      0.70366667	      1.69273623	     -4.64941436	      1.66562148	     -0.44812975	      1.00473462	      0.30027621	      6.47488292	      9.96103223	     -1.22972431	    -15.32774671	      5.92307476	    -13.37263041	     -1.85797649	     21.23358082	     -4.36287499	      0.22845393	    -69.25293828	     -4.04043001	     -8.98291371	      2.78432501	     -3.62709765	      8.64313549	      2.75488663
      0.70783333	      1.77567802	     -4.53199179	      1.61822241	     -0.44282338	      1.00560945	      0.30048306	      5.80195596	      9.85582838	     -1.16322976	    -14.87368817	      5.95288618	    -13.21166023	     -1.90305791	     21.61741732	     -4.18191265	      0.25546976	    -68.63858929	     -3.60014367	     -9.31586035	      2.65898735	     -3.76151875	      8.49617601	      2.92129763
      0.71200000	      1.77426964	     -4.41800935	      1.53674009	     -0.43755504	      1.00629577	      0.30071167	      5.25729017	      9.75179401	     -1.07586349	    -14.49722521	      6.00578777	    -13.10162229	     -1.92924839	     22.07481978	     -4.01144583	      0.25296822	    -67.97973315	     -3.05671758	     -9.63493356	      2.58918744	     -3.80237892	      8.35784654	      3.01641921
      0.71616667	      1.83123881	     -4.29936990	      1.47453373	     -0.43225420	      1.00705100	      0.30092216	      4.62113446	      9.64352101	     -0.98821689	    -14.05839562	      6.05223324	    -12.95377693	     -1.98213672	     22.43686404	     -3.83655186	      0.25840616	    -67.23276372	     -2.59679718	     -9.95385250	      2.44852874	     -3.90779051	      8.21225603	      3.20246588
      0.72033333	      1.83977251	     -4.19289537	      1.37549267	     -0.42697694	      1.00766877	      0.30115889	      4.06697522	      9.54586595	     -0.87840951	    -13.68104380	      6.09851740	    -12.85109188	     -2.02065959	     22.82860965	     -3.68962989	      0.22564871	    -66.43732952	     -2.05828555	    -10.26141623	      2.34744441	     -3.95133474	      8.09024285	      3.32437624
      0.72450000	      1.84476456	     -4.08168915	      1.28352115	     -0.42169972	      1.00823941	      0.30137764	      3.51373220	      9.44175452	     -0.75935468	    -13.29719425	      6.15113619	    -12.75227640	     -2.05389310	     23.20169819	     -3.53451907	      0.19827653	    -65.57737680	     -1.55092660	    -10.55854902	      2.25810504	     -3.99946636	      7.96102913	      3.45526247
      0.72866667	      1.85498494	     -3.97210537	      1.18305613	     -0.41641768	      1.00877177	      0.30161532	      2.95369935	      9.33937478	     -0.63021101	    -12.90729321	      6.20084818	    -12.65397246	     -2.09411028	     23.54127301	     -3.39253297	      0.15224838	    -64.65039801	     -1.06527002	    -10.85388982	      2.14704352	     -4.05011215	      7.82856327	      3.62164780
      0.73283333	      1.89323801	     -3.86337029	      1.10256389	     -0.41112940	      1.00930921	      0.30182103	      2.34913553	      9.23779815	     -0.49915385	    -12.48462680	      6.26160374	    -12.56726914	     -2.16974041	     23.82667135	     -3.24411851	      0.12532345	    -63.65716676	     -0.63156634	    -11.13564115	      1.93246059	     -4.14400786	      7.69479713	      3.85966432
      0.73700000	      1.90299719	     -3.75894126	      0.99295760	     -0.40584500	      1.00973856	      0.30204531	      1.79707288	      9.13714393	     -0.35588245	    -12.10826043	      6.31608380	    -12.49364920	     -2.24711617	     24.11717979	     -3.11479136	      0.06256991	    -62.61223100	     -0.17563747	    -11.41329507	      1.70741067	     -4.19509596	      7.56945721	      4.03784560
      0.74116667	      1.85506588	     -3.66380761	      0.86441380	     -0.40058761	      1.01001486	      0.30227991	      1.33321357	      9.04235476	     -0.21131561	    -11.78063091	      6.37235061	    -12.42515082	     -2.28481689	     24.45249284	     -3.00279013	     -0.01576979	    -61.52380439	      0.30455203	    -11.66771118	      1.59329101	     -4.17658426	      7.45920203	      4.13779357
      0.74533333	      1.84347278	     -3.59474617	      0.76353952	     -0.39531022	      1.01030432	      0.30251944	      0.78398815	      8.99173295	      0.02660917	    -11.36253175	      6.47135398	    -12.60792382	     -3.38634984	     24.73251935	     -2.91567571	     -0.06861088	    -60.38887629	      0.73738038	    -11.89287758	     -1.66352650	     -4.19952848	      7.36697973	      4.39031331
      0.74950000	      1.82663033	     -3.50372038	      0.64430854	     -0.39002848	      1.01054972	      0.30272627	      0.27992255	      8.89467596	      0.14559768	    -11.01227127	      6.48880784	    -12.44301234	     -3.40293468	     24.97988945	     -2.81121506	     -0.14762457	    -59.17589519	      1.14467961	    -12.09636841	     -1.68447206	     -4.21863525	      7.26376195	      4.49240462
      0.75366667	      1.81796168	     -3.42379869	      0.53978290	     -0.38475382	      1.01073559	      0.30290951	     -0.23427760	      8.81105398	      0.26969327	    -10.66051714	      6.56904805	    -12.36312897	     -3.42129082	     25.20135490	     -2.71304195	     -0.21185184	    -57.91446674	      1.48888787	    -12.32495065	     -1.72071223	     -4.24593656	      7.17017262	      4.63861410
      0.75783333	      1.80576348	     -3.34355385	      0.43723946	     -0.37944496	      1.01088400	      0.30310164	     -0.75526115	      8.72742382	      0.39110247	    -10.28723380	      6.64467280	    -12.32807905	     -3.44910689	     25.40134773	     -2.62308090	     -0.29337888	    -56.59698331	      1.76451133	    -12.54920918	     -1.78320385	     -4.26023182	      7.06298106	      4.82275006
